# xmcd
#
# Track frame offsets: 
#        150
#        14457
#        33297
#        48357
#        67427
#        87235
#        107510
#        126775
#        147810
#        170350
#        199657
#        210177
#        224967
#        240870
#        255195
#        280837
#        294730
#        313325
#
# Disc length: 4391 seconds
#
# Revision: 0
# Processed by: cddbd v1.4PL0 Copyright (c) Steve Scherf et al.
# Submitted via: ExactAudioCopy v0.90b4
#
DISCID=0a112512
DTITLE=Alabama - Mountain Music
DYEAR=1994
DGENRE=Country
TTITLE0=Tennessee River
TTITLE1=Why Lady Why
TTITLE2=Love In The Firrst Degree
TTITLE3=Mountain Music
TTITLE4=Roll On (Eighteen Wheeler)
TTITLE5=If You're Gonna Play In Texas
TTITLE6=Fire In The Night
TTITLE7=She And I
TTITLE8=Tar Top
TTITLE9=My Homes In Alabama
TTITLE10=Hanging Up My Travelling Shoes
TTITLE11=Getting Over You
TTITLE12=I Wanna Come Over
TTITLE13=Some Other Place, Some Other Time
TTITLE14=Can't Forget About You
TTITLE15=Get It While It's Hot
TTITLE16=Keep On Dreamin'
TTITLE17=Feels So Right
EXTD=
EXTT0=
EXTT1=
EXTT2=
EXTT3=
EXTT4=
EXTT5=
EXTT6=
EXTT7=
EXTT8=
EXTT9=
EXTT10=
EXTT11=
EXTT12=
EXTT13=
EXTT14=
EXTT15=
EXTT16=
EXTT17=
PLAYORDER=
